<svg data-v-0dd9719b="" version="1.0" xmlns="http://www.w3.org/2000/svg" xmlns:xlink="http://www.w3.org/1999/xlink" width="100%" height="100%" viewBox="0 0 340.000000 250.000000" preserveAspectRatio="xMidYMid meet" color-interpolation-filters="sRGB" style="margin: auto;"> <rect data-v-0dd9719b="" x="0" y="0" width="100%" height="100%" fill="#fff" fill-opacity="1" class="background"></rect> <rect data-v-0dd9719b="" x="0" y="0" width="100%" height="100%" fill="url(#watermark)" fill-opacity="1" class="watermarklayer"></rect> <g data-v-0dd9719b="" fill="#333" class="icon-text-wrapper icon-svg-group iconsvg" transform="translate(47.82500457763672,90.35796737670898)"><g class="iconsvg-imagesvg" transform="translate(0,0)"><g><rect fill="#333" fill-opacity="0" stroke-width="2" x="0" y="0" width="60" height="69.28406466512702" class="image-rect"></rect> <svg x="0" y="0" width="60" height="69.28406466512702" filtersec="colorsb668189278" class="image-svg-svg primary" style="overflow: visible;"><svg xmlns="http://www.w3.org/2000/svg" viewBox="0 0 86.5999984741211 100"><g fill-rule="evenodd"><path d="M28.87 83.33l28.86-16.66V100zm0-66.66V50l28.86-16.67-28.86-16.66L0 33.33 28.87 50zm28.86 50V33.33L28.87 50 0 66.67l28.87 16.66z" fill="#21335c"></path><path d="M28.87 50L0 33.33l28.87-16.66 28.86 16.66L28.87 50zm28.86-16.67L86.6 16.67 57.73 0 28.87 16.67z" fill="#da2638" opacity=".8"></path><path d="M28.87 83.33L0 66.67 28.87 50l28.86-16.67v33.34zm28.86-50v33.34L86.6 50z" fill="#0089c8" opacity=".8"></path></g></svg></svg> <!----></g></g> <g transform="translate(67,5.850780487060547)"><g data-gra="path-name" fill-rule="" class="tp-name iconsvg-namesvg" transform="translate(0,0)"><g transform="scale(1)"><g><path d="M11.7-16.16L11.7-11.43 20.11-11.43 20.11-16.16 11.7-16.16ZM20.11-17.46L20.11-22.05 11.7-22.05 11.7-17.46 20.11-17.46ZM33.07-17.46L33.07-22.05 24.48-22.05 24.48-17.46 33.07-17.46ZM24.48-16.16L24.48-11.43 33.07-11.43 33.07-16.16 24.48-16.16ZM24.48 0.94L35.55 0.94Q35.68-2.56 39.6-2.56L39.6-2.56Q43.56-1.98 43.42 1.53L43.42 1.53Q43.24 2.25 42.16 2.25L42.16 2.25 1.98 2.25 1.57 0.94 20.11 0.94 20.11-4.18 5.49-4.18 5.08-5.49 20.11-5.49 20.11-10.13 11.7-10.13 11.7-9.22Q11.7-8.87 10.48-8.32L10.48-8.32Q9.27-7.83 8.05-7.83L8.05-7.83 7.42-7.83 7.42-23.31 20.11-23.31 20.11-27.49 2.75-27.49 2.38-28.8 20.11-28.8 20.11-32.67Q12.73-32.13 5.26-32.13L5.26-32.13 5.17-32.94Q12.64-33.62 20.97-35.05L20.97-35.05Q29.34-36.54 34.29-38.07L34.29-38.07 38.16-34.11Q37.39-33.44 35.5-34.29L35.5-34.29Q30.64-33.52 24.48-32.98L24.48-32.98 24.48-28.8 35.32-28.8Q35.5-31.95 39.2-31.95L39.2-31.95Q42.88-31.36 42.7-28.21L42.7-28.21Q42.52-27.49 41.49-27.49L41.49-27.49 24.48-27.49 24.48-23.31 32.63-23.31Q32.85-25.65 36.18-25.65L36.18-25.65Q39.51-24.57 39.28-22.23L39.28-22.23Q38.7-21.6 37.39-21.33L37.39-21.33 37.39-9.67Q37.35-9.45 36.05-8.96L36.05-8.96Q38.74-6.43 40.5-4.91L40.5-4.91Q40.32-4.18 39.28-4.18L39.28-4.18 24.48-4.18 24.48 0.94ZM33.44-5.49L35.87-8.5Q34.78-8.5 33.8-8.5L33.8-8.5 33.07-8.5 33.07-10.13 24.48-10.13 24.48-5.49 33.44-5.49ZM64.94-37.93L64.94-37.93 65.25-38.25Q71.14-37.66 72.67-34.78L72.67-34.78Q73.58-33.07 72.45-31.81L72.45-31.81Q71.28-30.51 69.44-31.45L69.44-31.45Q69.3-31.54 69.21-31.59L69.21-31.59Q68.27-34.7 64.94-37.93ZM87.53-29.74L55.35-29.74 55.35-19.26Q55.35-16.56 55.22-14.54L55.22-14.54Q55.13-12.51 54.63-9.67L54.63-9.67Q54.18-6.88 53.28-4.68L53.28-4.68Q52.42-2.52 50.8-0.18 49.19 2.16 46.89 3.96L46.89 3.96 46.3 3.55Q49.32-0.9 50.27-6.39L50.27-6.39Q51.21-11.92 51.21-19.21L51.21-19.21 51.21-31.05 81.72-31.05Q81.77-34.29 85.28-34.29L85.28-34.29Q88.78-33.7 88.74-30.46L88.74-30.46Q88.56-29.74 87.53-29.74L87.53-29.74ZM85.81-17.73L85.81-17.73 72.18-17.73Q74.03-11.29 78.39-7.15L78.39-7.15Q82.75-3.06 88.74-1.13L88.74-1.13 88.65-0.58Q85.32 0.81 84.87 3.6L84.87 3.6Q75.02-1.98 71.59-15.84L71.59-15.84Q69.88-8.82 65.43-3.92L65.43-3.92Q60.98 0.94 52.52 3.73L52.52 3.73 52.11 3.24Q59.17-0.27 62.77-5.49L62.77-5.49Q66.38-10.75 67.59-17.73L67.59-17.73 57.11-17.73 56.74-19.04 67.77-19.04Q68.36-22.99 68.27-28.66L68.27-28.66 73.03-28.04Q72.81-22.27 72.27-19.04L72.27-19.04 79.25-19.04Q79.42-22.41 83.34-22.41L83.34-22.41Q87.25-21.82 87.07-18.45L87.07-18.45Q86.89-17.73 85.81-17.73ZM108.94-19.8L121.72-19.8 121.72-26.05 111.24-26.05Q110.2-22.45 108.94-19.8L108.94-19.8ZM121.72-27.36L121.72-33.57 112.63-33.57Q112.23-30.33 111.56-27.36L111.56-27.36 121.72-27.36ZM123.62-0.81L123.62-10.35 106.65-10.35 106.65-0.81 123.62-0.81ZM126-27.36L126.85-27.36Q126.85-30.55 130.14-30.55L130.14-30.55Q133.43-29.97 133.43-26.77L133.43-26.77Q133.25-26.05 132.21-26.05L132.21-26.05 126-26.05 126-17.05Q125.91-16.83 124.65-16.43 123.39-16.02 122.4-16.02L122.4-16.02 121.72-16.02 121.72-18.5 108.27-18.5Q106.47-15.16 104.36-12.78L104.36-12.78 107.23-11.65 123.16-11.65Q123.39-13.99 126.77-13.99L126.77-13.99Q130.05-12.87 129.82-10.53L129.82-10.53Q129.28-9.81 127.94-9.63L127.94-9.63 127.94 2.25Q127.89 2.52 126.59 2.92L126.59 2.92Q125.32 3.38 124.34 3.38L124.34 3.38 123.62 3.38 123.62 0.49 106.65 0.49 106.65 2.56Q106.65 2.75 106.25 3.01L106.25 3.01Q105.89 3.33 105.03 3.55L105.03 3.55Q104.22 3.82 103.23 3.82L103.23 3.82 102.47 3.82 102.47-10.8Q98.28-6.75 91.98-3.87L91.98-3.87 91.53-4.37Q99.86-9.63 103.95-18.5L103.95-18.5 96.97-18.5 96.57-19.8 104.49-19.8Q105.75-22.9 106.47-26.05L106.47-26.05 92.75-26.05 92.39-27.36 106.78-27.36Q107.41-30.51 107.69-33.57L107.69-33.57 97.42-33.57 97.02-34.88 121.28-34.88Q121.5-37.21 124.88-37.21L124.88-37.21Q128.2-36.09 127.98-33.75L127.98-33.75Q127.31-33.03 126-32.76L126-32.76 126-27.36ZM153.31-36.41L153.31-36.41 153.85-36.63Q158.31-34.74 158.94-31.95L158.94-31.95Q159.34-30.29 158.18-29.47L158.18-29.47Q157-28.71 155.7-29.92L155.7-29.92Q155.47-32.58 153.31-36.41ZM151.65-4.46L164.16-4.46Q164.25-7.42 167.44-7.42L167.44-7.42Q170.64-6.84 170.55-3.87L170.55-3.87Q170.41-3.15 169.38-3.15L169.38-3.15 152.01-3.15 151.65-4.46ZM157.23-17.5L157.23-17.5 165.91-17.5 167.53-19.44 168.12-18.99Q167.35-20.11 166.68-21.82L166.68-21.82 160.6-21.82Q159.3-19.75 157.23-17.5ZM142.88-14.49L142.88-14.49 146.7-14.49 146.7-23.71 142.97-23.71 142.97-20.11Q142.97-16.43 142.88-14.49ZM146.7-25.02L146.7-33.93 142.97-33.93 142.97-25.02 146.7-25.02ZM177.53-21.82L177.53-21.82 167.76-21.82Q169.43-19.84 172.39-18.59L172.39-18.59Q175.41-17.32 178.92-16.92L178.92-16.92 178.88-16.38Q176.58-15.79 176.09-12.82L176.09-12.82Q173.07-13.86 170.82-15.84L170.82-15.84Q170.37-15.66 169.74-15.57L169.74-15.57Q169.69-15.12 169.56-13.9 169.43-12.69 169.29-11.56 169.16-10.44 169.02-9.58L169.02-9.58 171.27-9.58Q171.63-11.61 174.6-11.61L174.6-11.61Q177.48-10.48 177.12-8.46L177.12-8.46Q176.67-7.92 175.41-7.74L175.41-7.74Q174.96 0.99 172.71 2.61L172.71 2.61Q171.05 3.78 168.07 3.78L168.07 3.78Q168.07 1.89 167.26 1.3L167.26 1.3Q166.32 0.45 163.4-0.04L163.4-0.04 163.4-0.72Q167.49-0.4 168.88-0.4L168.88-0.4Q169.88-0.4 170.24-0.72L170.24-0.72Q171.27-1.53 171.68-8.28L171.68-8.28 158.9-8.28Q158.76-6.48 156.15-6.48L156.15-6.48Q153.54-7.29 153.68-9.09L153.68-9.09Q154.4-9.63 155.34-10.04L155.34-10.04Q155.84-12.78 156.01-15.71L156.01-15.71 156.1-16.52Q153.59-14.31 150.75-12.87L150.75-12.87 150.53-13.18Q154.75-16.7 157.45-21.82L157.45-21.82 151.34-21.82 150.97-23.13 158.09-23.13Q158.9-24.88 159.62-26.95L159.62-26.95 152.46-26.95 152.1-28.26 159.97-28.26Q161.19-32.45 161.64-37.98L161.64-37.98 165.69-37.03Q164.93-31.72 163.66-28.26L163.66-28.26 167.09-28.26Q169.16-32.8 170.32-36.81L170.32-36.81 173.7-34.88Q171.81-31.54 168.07-28.26L168.07-28.26 170.69-28.26Q170.82-30.78 173.7-30.78L173.7-30.78Q176.58-30.2 176.44-27.68L176.44-27.68Q176.26-26.95 175.28-26.95L175.28-26.95 163.17-26.95Q162.59-25.38 161.37-23.13L161.37-23.13 172.26-23.13Q172.39-26.01 175.63-26.01L175.63-26.01Q178.88-25.43 178.74-22.54L178.74-22.54Q178.56-21.82 177.53-21.82ZM166.23-16.2L156.19-16.2 160.97-14.63Q160.6-13.59 159.25-13.63L159.25-13.63Q158.99-11.07 158.72-9.58L158.72-9.58 165.47-9.58Q165.87-12.24 166.23-16.2L166.23-16.2ZM150.53-33.39L150.53-33.39 150.53-1.21Q150.53 1.21 149.53 2.34L149.53 2.34Q148.59 3.51 145.49 3.82L145.49 3.82Q145.35 1.71 144.76 0.99L144.76 0.99Q143.91 0 141.75-0.36L141.75-0.36 141.75-1.03Q145.08-0.81 145.8-0.81L145.8-0.81Q146.7-0.81 146.7-1.67L146.7-1.67 146.7-13.18 142.83-13.18Q142.06-1.98 136.94 3.87L136.94 3.87 136.31 3.46Q137.34 1.08 137.97-1.71 138.6-4.5 138.82-8.05L138.82-8.05Q139.09-11.61 139.14-13.72L139.14-13.72Q139.19-15.88 139.19-20.11L139.19-20.11 139.19-35.23 146.29-35.23Q146.43-37.35 149.35-37.35L149.35-37.35Q152.24-36.31 152.1-34.2L152.1-34.2Q151.74-33.7 150.53-33.39Z" transform="translate(-1.5699999332427979, 38.25)"></path></g> <!----> <!----> <!----> <!----> <!----> <!----> <!----></g></g> <g data-gra="path-slogan" fill-rule="" class="tp-slogan iconsvg-slogansvg" fill="#333" transform="translate(4.999992370605469,48.209999084472656)"><rect x="0" height="1" y="4.185000419616699" width="13.924995422363281"></rect> <rect height="1" y="4.185000419616699" width="13.924995422363281" x="153.42499542236328"></rect> <g transform="translate(16.92499542236328,0)"><g transform="scale(1)"><path d="M8.06-6.05L8.06-6.05L6.94-6.05Q6.52-7.78 4.55-7.83L4.55-7.83Q1.83-7.69 1.73-4.36L1.73-4.36Q1.73-0.80 4.59-0.80L4.59-0.80Q6.56-0.84 7.03-3.19L7.03-3.19L8.16-3.19Q7.64 0.05 4.36 0.14L4.36 0.14Q0.61 0 0.52-4.31L0.52-4.31Q0.70-8.63 4.55-8.81L4.55-8.81Q7.59-8.72 8.06-6.05ZM10.69-5.06L15.19-5.06L15.19-8.58L16.36-8.58L16.36 0L15.19 0L15.19-3.98L10.69-3.98L10.69 0L9.52 0L9.52-8.58L10.69-8.58L10.69-5.06ZM24.94-4.27L24.94-4.27Q24.75-7.64 21.94-7.83L21.94-7.83Q19.08-7.69 18.94-4.27L18.94-4.27Q19.08-0.94 21.94-0.80L21.94-0.80Q24.75-0.98 24.94-4.27ZM26.11-4.27L26.11-4.27Q25.83 0 21.94 0.14L21.94 0.14Q18 0 17.72-4.27L17.72-4.27Q17.95-8.72 21.94-8.81L21.94-8.81Q25.83-8.67 26.11-4.27ZM28.88-8.58L33.19-1.64L33.19-8.58L34.31-8.58L34.31 0L33 0L28.64-6.94L28.59-6.94L28.59 0L27.47 0L27.47-8.58L28.88-8.58ZM42.52-3.61L39.89-3.61L39.89-4.59L43.64-4.59L43.64 0L42.89 0L42.61-1.08Q41.63 0.09 39.80 0.14L39.80 0.14Q38.06 0.14 37.13-0.75L37.13-0.75Q35.72-2.06 35.77-4.36L35.77-4.36Q36.09-8.63 39.84-8.81L39.84-8.81Q43.03-8.63 43.50-6L43.50-6L42.38-6Q41.91-7.78 39.80-7.83L39.80-7.83Q37.13-7.64 36.98-4.31L36.98-4.31Q36.98-0.75 39.84-0.75L39.84-0.75Q40.88-0.75 41.63-1.31L41.63-1.31Q42.56-2.06 42.52-3.61L42.52-3.61ZM50.44-1.08L49.55-1.78L50.16-2.48L51.23-1.64Q52.22-2.63 52.22-4.27L52.22-4.27Q52.03-7.64 49.22-7.83L49.22-7.83Q46.36-7.69 46.22-4.27L46.22-4.27Q46.36-0.94 49.22-0.80L49.22-0.80Q49.92-0.80 50.44-1.08L50.44-1.08ZM52.17-0.94L53.30-0.05L52.73 0.56L51.42-0.33Q50.58 0.14 49.22 0.14L49.22 0.14Q45.28 0 45-4.27L45-4.27Q45.23-8.72 49.22-8.81L49.22-8.81Q53.11-8.67 53.39-4.27L53.39-4.27Q53.34-2.20 52.17-0.94L52.17-0.94ZM54.94-8.58L56.11-8.58L56.11 0L54.94 0L54.94-8.58ZM59.48-8.58L63.80-1.64L63.80-8.58L64.92-8.58L64.92 0L63.61 0L59.25-6.94L59.20-6.94L59.20 0L58.08 0L58.08-8.58L59.48-8.58ZM73.13-3.61L70.50-3.61L70.50-4.59L74.25-4.59L74.25 0L73.50 0L73.22-1.08Q72.23 0.09 70.41 0.14L70.41 0.14Q68.67 0.14 67.73-0.75L67.73-0.75Q66.33-2.06 66.38-4.36L66.38-4.36Q66.70-8.63 70.45-8.81L70.45-8.81Q73.64-8.63 74.11-6L74.11-6L72.98-6Q72.52-7.78 70.41-7.83L70.41-7.83Q67.73-7.64 67.59-4.31L67.59-4.31Q67.59-0.75 70.45-0.75L70.45-0.75Q71.48-0.75 72.23-1.31L72.23-1.31Q73.17-2.06 73.13-3.61L73.13-3.61ZM78.66-1.92L78.66-2.77L79.73-2.77L79.73-2.16Q79.73-0.75 81.05-0.75L81.05-0.75Q82.41-0.75 82.41-2.25L82.41-2.25L82.41-8.58L83.58-8.58L83.58-2.30Q83.53 0.09 81.09 0.14L81.09 0.14Q78.80 0.09 78.66-1.92L78.66-1.92ZM91.03-3.19L91.03-8.58L92.20-8.58L92.20-3.05Q92.06 0.05 88.69 0.14L88.69 0.14Q85.55 0.05 85.41-2.86L85.41-2.86L85.41-8.58L86.58-8.58L86.58-3.19Q86.63-0.84 88.73-0.80L88.73-0.80Q91.03-0.84 91.03-3.19L91.03-3.19ZM95.39-8.58L99.70-1.64L99.70-8.58L100.83-8.58L100.83 0L99.52 0L95.16-6.94L95.11-6.94L95.11 0L93.98 0L93.98-8.58L95.39-8.58ZM104.81-7.59L101.91-7.59L101.91-8.58L108.84-8.58L108.84-7.59L105.94-7.59L105.94 0L104.81 0L104.81-7.59ZM111.19-1.03L116.34-1.03L116.34 0L110.02 0L110.02-8.58L116.25-8.58L116.25-7.59L111.19-7.59L111.19-4.92L115.88-4.92L115.88-3.89L111.19-3.89L111.19-1.03ZM119.25-8.58L123.56-1.64L123.56-8.58L124.69-8.58L124.69 0L123.38 0L119.02-6.94L118.97-6.94L118.97 0L117.84 0L117.84-8.58L119.25-8.58ZM132.89-3.61L130.27-3.61L130.27-4.59L134.02-4.59L134.02 0L133.27 0L132.98-1.08Q132 0.09 130.17 0.14L130.17 0.14Q128.44 0.14 127.50-0.75L127.50-0.75Q126.09-2.06 126.14-4.36L126.14-4.36Q126.47-8.63 130.22-8.81L130.22-8.81Q133.41-8.63 133.88-6L133.88-6L132.75-6Q132.28-7.78 130.17-7.83L130.17-7.83Q127.50-7.64 127.36-4.31L127.36-4.31Q127.36-0.75 130.22-0.75L130.22-0.75Q131.25-0.75 132-1.31L132-1.31Q132.94-2.06 132.89-3.61L132.89-3.61Z" transform="translate(-0.515625, 8.8125)"></path></g></g></g></g></g><defs v-gra="od"></defs></svg>